<?xml version="1.0" encoding="utf-8"?>
<svg xmlns="http://www.w3.org/2000/svg" viewBox="0 0 500 500">
  <g id="Capa_1" transform="matrix(1.60325, 0, 0, 1.60325, -367.576, -120.085)" style="">
    <path d="M 473.433 227.822 C 468.314 227.822 463.344 228.309 458.586 229.492 L 439.631 178.537 L 445.807 178.537 C 455.527 178.537 464.72 174.96 471.694 168.192 L 478.235 161.919 C 481.208 159.034 481.278 154.324 478.393 151.351 C 475.508 148.378 470.76 148.327 467.788 151.212 L 461.247 157.418 C 457.088 161.455 451.604 163.536 445.808 163.536 L 428.829 163.536 C 426.371 163.536 424.069 164.892 422.668 166.911 C 421.267 168.931 420.943 171.584 421.803 173.886 L 429.017 193.258 C 428.971 193.257 428.924 193.399 428.878 193.399 C 428.862 193.399 428.846 193.536 428.829 193.536 L 332.856 193.536 L 319.895 171.699 L 333.973 166.804 C 337.44 165.613 339.537 162.254 338.934 158.638 C 338.33 155.023 335.203 152.537 331.537 152.537 L 290.327 152.537 C 284.552 152.537 279.852 157.043 279.852 162.818 C 279.852 171.759 287.118 178.938 296.048 178.938 C 297.838 178.938 299.613 178.591 301.325 178.004 L 305.428 176.571 L 318.574 198.567 L 308.477 228.852 C 305.165 228.183 301.763 227.762 298.284 227.651 C 280.695 227.088 264.229 233.789 252.065 246.348 C 240.371 258.422 234.225 274.34 234.762 291.17 C 235.794 323.507 261.934 349.646 294.271 350.678 C 294.944 350.699 295.611 350.71 296.279 350.71 C 313.09 350.71 328.792 343.994 340.491 331.916 C 349.955 322.143 355.782 309.536 357.376 296.536 L 369.427 296.536 C 372.025 298.536 375.388 300.17 379.066 300.17 C 387.262 300.17 393.93 293.534 393.93 285.337 C 393.93 282.676 393.218 280.198 391.988 278.034 L 434.03 206.729 L 444.583 235.018 C 425.148 245.377 411.885 265.849 411.885 289.366 C 411.885 323.304 439.495 350.915 473.433 350.915 C 507.371 350.915 534.98 323.305 534.98 289.368 C 534.98 255.431 507.371 227.822 473.433 227.822 Z M 415.709 208.537 L 379.103 270.628 C 379.09 270.628 379.078 270.566 379.066 270.566 C 379.023 270.566 378.982 270.662 378.939 270.663 L 341.808 208.538 L 415.709 208.538 L 415.709 208.537 Z M 328.722 215.545 L 366.1 278.059 C 365.482 279.16 365.011 280.537 364.688 281.537 L 357.362 281.537 C 354.771 260.537 341.298 242.416 322.704 233.536 L 328.722 215.545 Z M 309.177 281.537 C 308.674 280.537 308.096 280.011 307.449 279.304 L 316.314 252.678 C 327.034 258.603 334.876 269.537 337.148 281.537 L 309.177 281.537 Z M 326.125 318.002 C 317.91 326.483 306.814 331.042 294.91 330.657 C 273.088 329.961 255.449 312.338 254.753 290.516 C 254.39 279.147 258.537 268.404 266.432 260.254 C 274.33 252.1 284.929 247.612 296.277 247.612 C 296.732 247.612 297.187 247.622 297.646 247.636 C 299.148 247.684 300.627 247.821 302.085 248.025 L 293.119 274.925 C 286.55 276.462 281.638 282.355 281.638 289.386 C 281.638 297.582 288.306 304.187 296.501 304.187 C 302.053 304.187 306.896 301.537 309.448 296.537 L 337.147 296.537 C 335.696 304.537 331.927 312.011 326.125 318.002 Z M 473.433 330.918 C 450.524 330.918 431.885 312.279 431.885 289.37 C 431.885 274.438 439.806 261.326 451.664 254.001 L 465.762 291.786 C 466.887 294.803 469.748 296.666 472.789 296.666 C 473.66 296.666 474.546 296.514 475.41 296.19 C 479.291 294.743 481.263 290.422 479.814 286.542 L 465.645 248.565 C 468.169 248.084 470.77 247.822 473.433 247.822 C 496.342 247.822 514.98 266.461 514.98 289.37 C 514.98 312.279 496.343 330.918 473.433 330.918 Z" style="fill: color(xyz-d65 0.185 0.272 0.362);"/>
  </g>
  <g id="group-1" transform="matrix(1.60325, 0, 0, 1.60325, -367.576, -120.085)" style="">
    <path d="M 473.433 227.822 C 468.314 227.822 463.344 228.309 458.586 229.492 L 439.631 178.537 L 445.807 178.537 C 455.527 178.537 464.72 174.96 471.694 168.192 L 478.235 161.919 C 481.208 159.034 481.278 154.324 478.393 151.351 C 475.508 148.378 470.76 148.327 467.788 151.212 L 461.247 157.418 C 457.088 161.455 451.604 163.536 445.808 163.536 L 428.829 163.536 C 426.371 163.536 424.069 164.892 422.668 166.911 C 421.267 168.931 420.943 171.584 421.803 173.886 L 429.017 193.258 C 428.971 193.257 428.924 193.399 428.878 193.399 C 428.862 193.399 428.846 193.536 428.829 193.536 L 332.856 193.536 L 319.895 171.699 L 333.973 166.804 C 337.44 165.613 339.537 162.254 338.934 158.638 C 338.33 155.023 335.203 152.537 331.537 152.537 L 290.327 152.537 C 284.552 152.537 279.852 157.043 279.852 162.818 C 279.852 171.759 287.118 178.938 296.048 178.938 C 297.838 178.938 299.613 178.591 301.325 178.004 L 305.428 176.571 L 318.574 198.567 L 308.477 228.852 C 305.165 228.183 301.763 227.762 298.284 227.651 C 280.695 227.088 264.229 233.789 252.065 246.348 C 240.371 258.422 234.225 274.34 234.762 291.17 C 235.794 323.507 261.934 349.646 294.271 350.678 C 294.944 350.699 295.611 350.71 296.279 350.71 C 313.09 350.71 328.792 343.994 340.491 331.916 C 349.955 322.143 355.782 309.536 357.376 296.536 L 369.427 296.536 C 372.025 298.536 375.388 300.17 379.066 300.17 C 387.262 300.17 393.93 293.534 393.93 285.337 C 393.93 282.676 393.218 280.198 391.988 278.034 L 434.03 206.729 L 444.583 235.018 C 425.148 245.377 411.885 265.849 411.885 289.366 C 411.885 323.304 439.495 350.915 473.433 350.915 C 507.371 350.915 534.98 323.305 534.98 289.368 C 534.98 255.431 507.371 227.822 473.433 227.822 Z M 415.709 208.537 L 379.103 270.628 C 379.09 270.628 379.078 270.566 379.066 270.566 C 379.023 270.566 378.982 270.662 378.939 270.663 L 341.808 208.538 L 415.709 208.538 L 415.709 208.537 Z M 328.722 215.545 L 366.1 278.059 C 365.482 279.16 365.011 280.537 364.688 281.537 L 357.362 281.537 C 354.771 260.537 341.298 242.416 322.704 233.536 L 328.722 215.545 Z M 309.177 281.537 C 308.674 280.537 308.096 280.011 307.449 279.304 L 316.314 252.678 C 327.034 258.603 334.876 269.537 337.148 281.537 L 309.177 281.537 Z M 326.125 318.002 C 317.91 326.483 306.814 331.042 294.91 330.657 C 273.088 329.961 255.449 312.338 254.753 290.516 C 254.39 279.147 258.537 268.404 266.432 260.254 C 274.33 252.1 284.929 247.612 296.277 247.612 C 296.732 247.612 297.187 247.622 297.646 247.636 C 299.148 247.684 300.627 247.821 302.085 248.025 L 293.119 274.925 C 286.55 276.462 281.638 282.355 281.638 289.386 C 281.638 297.582 288.306 304.187 296.501 304.187 C 302.053 304.187 306.896 301.537 309.448 296.537 L 337.147 296.537 C 335.696 304.537 331.927 312.011 326.125 318.002 Z M 473.433 330.918 C 450.524 330.918 431.885 312.279 431.885 289.37 C 431.885 274.438 439.806 261.326 451.664 254.001 L 465.762 291.786 C 466.887 294.803 469.748 296.666 472.789 296.666 C 473.66 296.666 474.546 296.514 475.41 296.19 C 479.291 294.743 481.263 290.422 479.814 286.542 L 465.645 248.565 C 468.169 248.084 470.77 247.822 473.433 247.822 C 496.342 247.822 514.98 266.461 514.98 289.37 C 514.98 312.279 496.343 330.918 473.433 330.918 Z" style="fill: color(xyz-d65 0.185 0.272 0.362);"/>
  </g>
</svg>